<?xml version="1.0" encoding="UTF-8" standalone="no"?>
<svg
   xmlns:dc="http://purl.org/dc/elements/1.1/"
   xmlns:cc="http://creativecommons.org/ns#"
   xmlns:rdf="http://www.w3.org/1999/02/22-rdf-syntax-ns#"
   xmlns:svg="http://www.w3.org/2000/svg"
   xmlns="http://www.w3.org/2000/svg"
   xmlns:sodipodi="http://sodipodi.sourceforge.net/DTD/sodipodi-0.dtd"
   xmlns:inkscape="http://www.inkscape.org/namespaces/inkscape"
   version="1.1"
   id="svg2"
   width="215"
   height="100"
   viewBox="0 0 215 100"
   sodipodi:docname="logo.svg"
   inkscape:version="1.0.1 (3bc2e813f5, 2020-09-07)">
  <metadata
     id="metadata8">
    <rdf:RDF>
      <cc:Work
         rdf:about="">
        <dc:format>image/svg+xml</dc:format>
        <dc:type
           rdf:resource="http://purl.org/dc/dcmitype/StillImage" />
        <dc:title></dc:title>
      </cc:Work>
    </rdf:RDF>
  </metadata>
  <defs
     id="defs6" />
  <sodipodi:namedview
     pagecolor="#ffffff"
     bordercolor="#666666"
     borderopacity="1"
     objecttolerance="10"
     gridtolerance="10"
     guidetolerance="10"
     inkscape:pageopacity="0"
     inkscape:pageshadow="2"
     inkscape:window-width="1920"
     inkscape:window-height="1025"
     id="namedview4"
     showgrid="false"
     inkscape:zoom="6.0604651"
     inkscape:cx="107.5"
     inkscape:cy="50"
     inkscape:window-x="0"
     inkscape:window-y="27"
     inkscape:window-maximized="1"
     inkscape:current-layer="g10" />
  <g
     inkscape:groupmode="layer"
     inkscape:label="Image"
     id="g10">
    <path
       style="fill:#191919;stroke:none"
       d="m 13.551329,52.372628 c 10.599899,-8.1065 18.701799,-19.0263 29.999999,-26.642 19.4769,-13.1286 40.1381,-14.9715 63.000002,-12.5239 5.891,0.6308 12.371,0.7646 18,2.7793 5.445,1.9486 8.852,6.74 11.921,11.3866 1.927,2.9172 3.509,6.6816 7.172,7.6821 5.557,1.5175 12.181,-0.0573 17.907,0.4877 17.177,1.6346 31.99,3.7945 47,12.8302 -9.677,-13.1078 -31.904,-15.3927 -47,-16.8302 -4.586,-0.4367 -9.49,0.4657 -13.957,-0.8936 -4.106,-1.2493 -5.567,-4.9341 -7.742,-8.2762 -2.87,-4.4111 -6.319,-9.0232 -11.301,-11.1458 -7.474,-3.18421 -17.01,-3.35727 -25,-3.94294 -13.101002,-0.96033 -26.193302,-1.54528 -39.000002,2.29707 -14.1403,4.24247 -25.7515,13.49827 -35.9992,23.79167 -5.6399,5.665 -11.4133,11.7979 -15.000799,19 m 34.999999,-12 v 1 l 114.000002,3 -13,-2.169 -25,-1.8457 -76.000002,0.0147 M 8.5513288,66.372626 h 1 C 19.587228,53.200728 36.312828,39.726028 52.547428,51.929728 c 2.7247,2.0482 5.0126,4.6141 6.899,7.4429 2.2691,3.4028 3.9775,7.086398 5.1049,10.999998 4.4459,-12.428198 -12.2292,-25.525998 -23,-26.815598 -14.6593,-1.7551 -28.030399,9.7079 -32.9999992,22.815598 m 137.0000012,6 h 1 c 4.824,-8.1779 9.375,-15.791598 18,-20.481498 16.363,-8.8975 37.275,-1.4863 43,16.481498 1.03,-3.4928 -0.603,-6.873798 -2.349,-9.999198 -4.678,-8.3756 -13.158,-13.2293 -22.651,-13.9105 -18.232,-1.3083 -32.327,10.8228 -37,27.909698 m 23,-10.999998 c 12.001,-3.8044 26.201,0.4159 27.659,14.999998 0.419,4.1876 -1.582,8.0537 -2.659,12 7.078,-6.5626 7.922,-18.368 1.467,-25.814798 -6.473,-7.4675 -19.764,-8.8603 -26.467,-1.1852 m -145.000002,2 c 11.9472,-4.8672 26.7099,-1.1598 28.6312,13.999998 0.5262,4.1524 -1.5642,8.0893 -2.6312,12 17.9222,-16.8926 -10.9239,-45.077798 -26,-25.999998 m 150.000002,4.999998 c -4.856,10.0936 2.541,18.3843 13,14 v -1 c -10.158,1.6402 -13.18357,-5.00873 -13,-13 m -143.000002,2 c -6.994366,9.23208 1.4521,18.069 12,13 v -1 c -10.4979,2.4043 -13.197818,-4.24213 -12,-12 m 35,1 1,1 -1,-1 m 89.000002,5 c -9.086,6.4124 -19.388,5 -30,5 -18.711,0 -37.341002,1 -56.000002,1 v 1 c 22.1027,0.4562 43.871002,2.6063 66.000002,1.0895 5.885,-0.4034 19.434,0.302 20,-8.0895 z"
       id="path16"
       sodipodi:nodetypes="ccccccccsccccscccccccccccccccccsccsccccccccccccccccccccccsccsc"
       inkscape:export-xdpi="96.229927"
       inkscape:export-ydpi="96.229927" />
  </g>
</svg>
